<svg xmlns="http://www.w3.org/2000/svg" width="250" viewBox="0 0 400 140">
  <g id="clearmlLogo">
    <g id="letters">
      <path id="C" d="M58.56791,69.78445V69.6819c0-10.46648,8.05486-18.67552,18.93189-18.67552,7.33705,0,12.057,3.07852,15.23809,7.49086L85.247,64.29466c-2.052-2.56507-4.41234-4.20688-7.84977-4.20688-5.028,0-8.56832,4.25815-8.56832,9.49158v.10254c0,5.38724,3.54035,9.59449,8.56832,9.59449,3.74543,0,5.9516-1.74435,8.1065-4.36106l7.4905,5.336c-3.38617,4.66869-7.95232,8.10613-15.905,8.10613A18.2371,18.2371,0,0,1,58.56791,69.78445Z" fill="#fafafa"/>
      <path id="L" d="M107.51234,51.72455h9.9534V78.91712h17.393v8.72213H107.51234Z" fill="#fafafa"/>
      <path id="E" d="M149.37681,51.72455h28.88565v8.46577h-19.0348v5.43852h17.23881v7.84977H159.22766v5.69524h19.29116v8.4654h-29.142Z" fill="#fafafa"/>
      <path id="A" d="M206.27392,51.46819H215.868l15.28937,36.17106H220.48547l-2.61635-6.41342h-13.853L201.451,87.63925H190.98455Zm8.72176,22.01042-4.00179-10.21013-4.05307,10.21013Z" fill="#fafafa"/>
      <path id="R" d="M244.90568,51.72455h16.98244c5.48979,0,9.28649,1.43672,11.69775,3.89925a11.135,11.135,0,0,1,3.18107,8.36323v.10254A11.358,11.358,0,0,1,269.379,75.12042l8.56795,12.51883H266.45428l-7.23414-10.877h-4.36107v10.877h-9.95339Zm16.52063,17.23917c3.38616,0,5.336-1.6418,5.336-4.25852v-.10254c0-2.8218-2.05235-4.25852-5.38724-4.25852h-6.516v8.61958Z" fill="#fafafa"/>
      <path id="DIVIDER" d="M294.97882,88.20617V51.19681h2.20983V88.20617Z" fill="#fafafa"/>
      <path id="M" d="M317.8605,51.72455h10.51775l8.56832,13.90429,8.56795-13.90429h10.51812v35.9147h-9.90249V67.01392L336.94657,81.072h-.20546l-9.1323-13.95519V87.63925H317.8605Z" fill="#fafafa"/>
      <path id="L-2" data-name="L" d="M372.65362,51.72455H382.607V78.91712H400v8.72213H372.65362Z" fill="#fafafa"/>
    </g>
    <g id="arcs">
      <path id="arc6" d="M75,130A65.07357,65.07357,0,0,1,10,65H0a75,75,0,0,0,75,75Z" fill="#82dd22"/>
      <path id="arc5" d="M75,10a54.82852,54.82852,0,0,1,38.87262,16.12744l7.08929-7.08935A65,65,0,0,0,10,65H20A55.06235,55.06235,0,0,1,75,10Z" fill="#14aa8c"/>
      <path id="arc4" d="M75,120A55.06235,55.06235,0,0,1,20,65H10a65,65,0,0,0,65,65Z" fill="#afe61e"/>
      <path id="arc3" d="M120.962,110.96191l-7.0893-7.08935h-.00006l-7.06769-7.06763a44.92827,44.92827,0,0,1-63.60986,0l-7.08594,7.08594A54.8275,54.8275,0,0,0,75,120v10A64.79661,64.79661,0,0,0,120.962,110.96191Z" fill="#14aa8c"/>
      <path id="arc2" d="M43.18024,96.81982l7.08264-7.08276a34.9836,34.9836,0,1,1,49.4743-49.47424l7.08264-7.08264A45,45,0,1,0,43.18024,96.81982Z" fill="#0096ff"/>
      <path id="arc1" d="M43.19513,96.80493a44.979,44.979,0,1,1,63.6098-63.60986l7.08594-7.08594a55,55,0,1,0-77.78174,77.78174Z" fill="#50beff"/>
    </g>
  </g>
</svg>
