<svg xmlns="http://www.w3.org/2000/svg" width="250" viewBox="0 0 400 140">
  <g>
    <g>
      <path d="M58.57,68.78v-.1C58.57,58.22,66.62,50,77.5,50c7.34,0,12.06,3.07,15.24,7.49l-7.49,5.79c-2-2.56-4.42-4.2-7.85-4.2-5,0-8.57,4.26-8.57,9.49v.1c0,5.39,3.54,9.6,8.57,9.6,3.74,0,5.95-1.75,8.1-4.36L93,79.25c-3.38,4.67-7.95,8.11-15.9,8.11A18.24,18.24,0,0,1,58.57,68.78Z" fill="#0b2471"/>
      <path d="M107.51,50.72h10v27.2h17.39v8.72H107.51Z" fill="#0b2471"/>
      <path d="M149.38,50.72h28.88v8.47h-19v5.44h17.24v7.85H159.23v5.69h19.29v8.47H149.38Z" fill="#0b2471"/>
      <path d="M206.27,50.47h9.6l15.29,36.17H220.49l-2.62-6.41H204l-2.57,6.41H191Zm8.73,22-4-10.21-4.05,10.21Z" fill="#0b2471"/>
      <path d="M244.91,50.72h17c5.49,0,9.28,1.44,11.7,3.9A11.18,11.18,0,0,1,276.77,63v.1a11.36,11.36,0,0,1-7.39,11L278,86.64h-11.5l-7.23-10.88h-4.36V86.64h-10ZM261.43,68c3.38,0,5.33-1.64,5.33-4.25V63.6c0-2.82-2.05-4.26-5.38-4.26h-6.52V68Z" fill="#0b2471"/>
      <path d="M295,87.21v-37h2.21v37Z" fill="#0b2471"/>
      <path d="M317.86,50.72h10.52L337,64.63l8.56-13.91H356V86.64h-9.9V66L337,80.07h-.21l-9.13-13.95V86.64h-9.75Z" fill="#0b2471"/>
      <path d="M372.65,50.72h10v27.2H400v8.72H372.65Z" fill="#0b2471"/>
    </g>
    <g>
      <path d="M113.72,26.12l0,0-5.16,5.24Z" fill="#0085ff"/>
      <path d="M44,33.39a44.56,44.56,0,0,0-.7,63l0,0L51,88.79a34.3,34.3,0,0,1-.66-47.68A33,33,0,0,1,74.13,30.82a34.76,34.76,0,0,1,25,10l7.28-7.29A44.56,44.56,0,0,0,44,33.39Z" fill="#0096ff"/>
      <path d="M75.18,130.47h-.75A65.21,65.21,0,0,1,9.93,65L0,65a75.18,75.18,0,0,0,75.18,75h.23l0-9.54Z" fill="#82dd22"/>
      <path d="M106.4,33.49l2.13-2.17-2.14,2.16Z" fill="#00d4ac"/>
      <path d="M36.77,103.46a54.14,54.14,0,0,0,38.41,15.85h.17l0,11.15A64.72,64.72,0,0,0,121,111.65L106.45,96.93a44.2,44.2,0,0,1-31.28,12.85h-.51A44.25,44.25,0,0,1,43.35,96.42l-6.82,6.79Z" fill="#14aa8c"/>
      <path d="M35.29,26.93a53.53,53.53,0,0,1,38.5-16.8,55.56,55.56,0,0,1,39.9,15.95l7.23-7.34a65.23,65.23,0,0,0-111,45.77c0,.17,0,.33,0,.5l10.44,0A54.69,54.69,0,0,1,35.29,26.93Z" fill="#14aa8c"/>
      <path d="M73.79,10.13a53.53,53.53,0,0,0-38.5,16.8A54.69,54.69,0,0,0,20.37,65c0,.15,0,.3,0,.46a54.75,54.75,0,0,0,16,38l.18-.18,6.82-6.79,0,0a44.54,44.54,0,0,1,63.08-62.9l2.14-2.16,5.16-5.24A55.56,55.56,0,0,0,73.79,10.13Z" fill="#50beff"/>
      <path d="M74.43,130.46h.95l0-11.15h-.17a54.14,54.14,0,0,1-38.41-15.85l-.24-.25-.18.18a54.75,54.75,0,0,1-16-37.95c0-.16,0-.31,0-.46L9.93,65a65.21,65.21,0,0,0,64.5,65.45Z" fill="#afe61e"/>
    </g>
  </g>
</svg>
